<svg xmlns="http://www.w3.org/2000/svg" viewBox="0 0 800 450" width="800" height="450">
  <defs>
    <linearGradient id="bg4" x1="0" y1="0" x2="1" y2="1">
      <stop offset="0%" stop-color="#1a1a1a"/>
      <stop offset="100%" stop-color="#2a2a2a"/>
    </linearGradient>
  </defs>
  <rect width="800" height="450" fill="url(#bg4)"/>
  <!-- Shield icon -->
  <g transform="translate(500,90)">
    <path d="M 90 0 L 180 35 L 180 110 C 180 180 90 230 90 230 C 90 230 0 180 0 110 L 0 35 Z" fill="#ef4444"/>
    <path d="M 60 115 L 82 137 L 128 85" stroke="#1a1a1a" stroke-width="10" fill="none" stroke-linecap="round" stroke-linejoin="round"/>
  </g>
  <!-- Checklist -->
  <g transform="translate(90,110)">
    <rect x="0" y="0" width="300" height="230" rx="10" fill="none" stroke="#f3f4f6" stroke-width="4"/>
    <circle cx="35" cy="45" r="10" fill="none" stroke="#ef4444" stroke-width="3"/>
    <path d="M 30 45 L 34 50 L 42 40" stroke="#ef4444" stroke-width="3" fill="none"/>
    <line x1="60" y1="45" x2="260" y2="45" stroke="#f3f4f6" stroke-width="4" opacity="0.7"/>
    <circle cx="35" cy="100" r="10" fill="none" stroke="#ef4444" stroke-width="3"/>
    <path d="M 30 100 L 34 105 L 42 95" stroke="#ef4444" stroke-width="3" fill="none"/>
    <line x1="60" y1="100" x2="260" y2="100" stroke="#f3f4f6" stroke-width="4" opacity="0.7"/>
    <circle cx="35" cy="155" r="10" fill="none" stroke="#ef4444" stroke-width="3"/>
    <path d="M 30 155 L 34 160 L 42 150" stroke="#ef4444" stroke-width="3" fill="none"/>
    <line x1="60" y1="155" x2="260" y2="155" stroke="#f3f4f6" stroke-width="4" opacity="0.7"/>
    <circle cx="35" cy="200" r="10" fill="none" stroke="#f3f4f6" stroke-width="3" opacity="0.5"/>
    <line x1="60" y1="200" x2="200" y2="200" stroke="#f3f4f6" stroke-width="4" opacity="0.4"/>
  </g>
  <text x="60" y="60" font-family="Arial, sans-serif" font-size="26" font-weight="800" fill="#ffffff">Standar K3 Scaffolding</text>
  <text x="60" y="88" font-family="Arial, sans-serif" font-size="14" fill="#9a9a9a">Permenaker No. 9 Tahun 2016</text>
</svg>
